<mxfile host="app.diagrams.net" agent="Mozilla/5.0 (Macintosh; Intel Mac OS X 10_15_7) AppleWebKit/537.36 (KHTML, like Gecko) Chrome/131.0.0.0 Safari/537.36" version="26.0.11">
  <diagram name="第 1 页" id="rlcm5lfefExAE8YrOiKz">
    <mxGraphModel dx="1242" dy="785" grid="0" gridSize="10" guides="1" tooltips="1" connect="1" arrows="1" fold="1" page="1" pageScale="1" pageWidth="827" pageHeight="1169" math="0" shadow="0">
      <root>
        <mxCell id="0" />
        <mxCell id="1" parent="0" />
        <mxCell id="Rl16lbnjKWnmfpAxJJmj-1" value="用户" style="shape=umlActor;verticalLabelPosition=bottom;verticalAlign=top;html=1;" vertex="1" parent="1">
          <mxGeometry x="163" y="327" width="30" height="60" as="geometry" />
        </mxCell>
        <mxCell id="Rl16lbnjKWnmfpAxJJmj-4" value="" style="rounded=0;whiteSpace=wrap;html=1;" vertex="1" parent="1">
          <mxGeometry x="247" y="149" width="355" height="505" as="geometry" />
        </mxCell>
        <mxCell id="Rl16lbnjKWnmfpAxJJmj-5" value="路线图功能模块" style="text;html=1;align=center;verticalAlign=middle;whiteSpace=wrap;rounded=0;" vertex="1" parent="1">
          <mxGeometry x="375" y="157" width="99" height="30" as="geometry" />
        </mxCell>
        <mxCell id="Rl16lbnjKWnmfpAxJJmj-7" value="配置路线图配置" style="ellipse;whiteSpace=wrap;html=1;" vertex="1" parent="1">
          <mxGeometry x="271" y="275" width="104" height="62" as="geometry" />
        </mxCell>
        <mxCell id="Rl16lbnjKWnmfpAxJJmj-12" value="创建路线图" style="ellipse;whiteSpace=wrap;html=1;" vertex="1" parent="1">
          <mxGeometry x="271" y="197" width="112" height="63" as="geometry" />
        </mxCell>
        <mxCell id="Rl16lbnjKWnmfpAxJJmj-13" value="创建工作项" style="ellipse;whiteSpace=wrap;html=1;" vertex="1" parent="1">
          <mxGeometry x="273" y="354" width="104" height="62" as="geometry" />
        </mxCell>
        <mxCell id="Rl16lbnjKWnmfpAxJJmj-14" value="" style="ellipse;whiteSpace=wrap;html=1;" vertex="1" parent="1">
          <mxGeometry x="282" y="543" width="104" height="62" as="geometry" />
        </mxCell>
        <mxCell id="Rl16lbnjKWnmfpAxJJmj-15" value="配置工作项关系" style="ellipse;whiteSpace=wrap;html=1;" vertex="1" parent="1">
          <mxGeometry x="279" y="443" width="104" height="62" as="geometry" />
        </mxCell>
      </root>
    </mxGraphModel>
  </diagram>
</mxfile>
